<mxfile host="app.diagrams.net" modified="2023-11-24T13:47:59.272Z" agent="Mozilla/5.0 (Windows NT 10.0; Win64; x64) AppleWebKit/537.36 (KHTML, like Gecko) Chrome/119.0.0.0 Safari/537.36 Edg/119.0.0.0" etag="vD7W3x9zi3Lmd-BojiIG" version="22.1.3" type="device">
  <diagram name="Pàgina-1" id="t4-3i-fzktAIc9puQOTV">
    <mxGraphModel dx="742" dy="402" grid="1" gridSize="10" guides="1" tooltips="1" connect="1" arrows="1" fold="1" page="1" pageScale="1" pageWidth="827" pageHeight="1169" math="0" shadow="0">
      <root>
        <mxCell id="0" />
        <mxCell id="1" parent="0" />
        <mxCell id="68czG8918Wwrf0z5QYm2-38" value="" style="triangle;whiteSpace=wrap;html=1;rotation=25;" parent="1" vertex="1">
          <mxGeometry x="91.48000000000002" y="254.17" width="187.03" height="110" as="geometry" />
        </mxCell>
        <mxCell id="68czG8918Wwrf0z5QYm2-39" value="P2" style="text;html=1;strokeColor=none;fillColor=none;align=center;verticalAlign=middle;whiteSpace=wrap;rounded=0;fontColor=#0000FF;fontStyle=1" parent="1" vertex="1">
          <mxGeometry x="259.06" y="345" width="50.94" height="30" as="geometry" />
        </mxCell>
        <mxCell id="68czG8918Wwrf0z5QYm2-40" value="" style="endArrow=none;html=1;rounded=0;strokeColor=#00FFFF;exitX=0.731;exitY=0.981;exitDx=0;exitDy=0;entryX=1;entryY=0.5;entryDx=0;entryDy=0;exitPerimeter=0;" parent="1" target="68czG8918Wwrf0z5QYm2-38" edge="1">
          <mxGeometry width="50" height="50" relative="1" as="geometry">
            <mxPoint x="122.92000000000002" y="219.42999999999995" as="sourcePoint" />
            <mxPoint x="259.06" y="350" as="targetPoint" />
          </mxGeometry>
        </mxCell>
        <mxCell id="68czG8918Wwrf0z5QYm2-41" value="&lt;b&gt;P1&lt;/b&gt;" style="text;html=1;strokeColor=none;fillColor=none;align=center;verticalAlign=middle;whiteSpace=wrap;rounded=0;fontColor=#0000FF;" parent="1" vertex="1">
          <mxGeometry x="89.05999999999995" y="192.99999999999997" width="60" height="30" as="geometry" />
        </mxCell>
        <mxCell id="68czG8918Wwrf0z5QYm2-42" value="" style="ellipse;whiteSpace=wrap;html=1;labelBackgroundColor=#FF0F0F;fillColor=#000000;fontColor=#FF0F0F;" parent="1" vertex="1">
          <mxGeometry x="121.06" y="218" width="5" height="5" as="geometry" />
        </mxCell>
        <mxCell id="68czG8918Wwrf0z5QYm2-43" value="" style="ellipse;whiteSpace=wrap;html=1;labelBackgroundColor=#FF0F0F;fillColor=#000000;fontColor=#FF0F0F;" parent="1" vertex="1">
          <mxGeometry x="266.06" y="345" width="5" height="5" as="geometry" />
        </mxCell>
        <mxCell id="68czG8918Wwrf0z5QYm2-44" value="" style="ellipse;whiteSpace=wrap;html=1;labelBackgroundColor=#FF0F0F;fillColor=#000000;fontColor=#FF0F0F;" parent="1" vertex="1">
          <mxGeometry x="239.06" y="190" width="5" height="5" as="geometry" />
        </mxCell>
        <mxCell id="68czG8918Wwrf0z5QYm2-45" value="" style="endArrow=none;dashed=1;html=1;dashPattern=1 2;strokeWidth=1;rounded=0;entryX=0.467;entryY=0.463;entryDx=0;entryDy=0;entryPerimeter=0;exitX=1;exitY=0.5;exitDx=0;exitDy=0;" parent="1" source="68czG8918Wwrf0z5QYm2-42" target="68czG8918Wwrf0z5QYm2-44" edge="1">
          <mxGeometry width="50" height="50" relative="1" as="geometry">
            <mxPoint x="159.06" y="220" as="sourcePoint" />
            <mxPoint x="179.06" y="240" as="targetPoint" />
          </mxGeometry>
        </mxCell>
        <mxCell id="68czG8918Wwrf0z5QYm2-46" value="" style="endArrow=none;dashed=1;html=1;dashPattern=1 2;strokeWidth=1;rounded=0;exitX=0.5;exitY=1;exitDx=0;exitDy=0;entryX=0.5;entryY=0;entryDx=0;entryDy=0;" parent="1" source="68czG8918Wwrf0z5QYm2-44" target="68czG8918Wwrf0z5QYm2-43" edge="1">
          <mxGeometry width="50" height="50" relative="1" as="geometry">
            <mxPoint x="136.06" y="231" as="sourcePoint" />
            <mxPoint x="289.06" y="260" as="targetPoint" />
          </mxGeometry>
        </mxCell>
        <mxCell id="68czG8918Wwrf0z5QYm2-67" value="&lt;b&gt;&lt;i&gt;p&lt;/i&gt;&lt;/b&gt;" style="text;html=1;strokeColor=none;fillColor=none;align=center;verticalAlign=middle;whiteSpace=wrap;rounded=0;" parent="1" vertex="1">
          <mxGeometry x="244.06" y="163" width="21.49" height="30" as="geometry" />
        </mxCell>
        <mxCell id="68czG8918Wwrf0z5QYm2-79" value="Els quatre vectors utilitzats per trobar els cosinus dels dos angles&amp;nbsp;&lt;font color=&quot;#00cc66&quot;&gt;α&lt;/font&gt; i&amp;nbsp;&lt;font color=&quot;#00cc66&quot;&gt;β&lt;/font&gt;&lt;br&gt;&amp;nbsp;" style="text;html=1;strokeColor=none;fillColor=none;align=center;verticalAlign=middle;whiteSpace=wrap;rounded=0;" parent="1" vertex="1">
          <mxGeometry x="138.56" y="133" width="473.94" height="30" as="geometry" />
        </mxCell>
        <mxCell id="KhGMIewLTXNn31ryJmVY-1" value="" style="shape=image;verticalLabelPosition=bottom;labelBackgroundColor=default;verticalAlign=top;aspect=fixed;imageAspect=0;image=data:image/png,iVBORw0KGgoAAAANSUhEUgAAAMkAAABjCAYAAAAxQSSNAAAPHklEQVR4Ae1d+a8Nyxa+/4Hfb+JK/HAIiSG4CMdBYgovhBgfQcwPERfX+IiIefYMIQgxj4kh5JAjxBwzCULEIWZi5hKiXr59rb516lT37uqq3fvs3quSne7dXV1d9dX6qmpVrVr9i+DACDACgQj8EniXbzICjIBgkrAQMAJpEGCSpAGIbzMCTBKWAUYgDQJMkjQA8W1GgEnCMsAIpEGASZIGIL7NCDBJWAYYgTQI5CRJZs+eLapVqybGjBmTpnh8mxGwRyAnSdK+fXtRqVKl1G/Lli32KHAKjEAAAjlJkoULF3ok6dSpU0Dx+BYjYI9ATpKkpKTEIwl6lGvXrtkjwSkwAj4I5CRJUJaOHTt6RIGOwoERyBQCOUuSY8eOeSRBbzJ69OhMYcTp5jkCzkjy/v37MkJLinWcx0GDBuV5dXLxM4GAM5KMGjUq6yQBITkwAq4RcEYS6AVx9hq6d2HthAMj4BoBZyRBxk6ePBnLT0fICRMmiNevX7vGh9NjBHJv05VKkKZNm4qDBw9yVTICGUPAaU+SsVz+TFglSM+ePcXbt28z/VpOP88RyBmSHD58uIzOA9OUDx8+5Hn1cfHjQCBnSNKwYUOPJM2aNROPHj2KAx9+ByOQOzoJbLRoRuvWrVtcdYxAbAjkTE+CoRVmz5ggsckGv+gnAjlDEq4xRiBbCDBJsoU8vzdnEGCS5ExVcUazhQCTJFvI83tzBgEmSc5UFWc0WwjkBEm+f//OK+vZkhB+r7t1EggypmhHjBghaOGvRo0aqR2Ey5cvF2/evDGG++XLl2LkyJGicuXKqTWSxo0biwMHDogfP34Yp8UPMAJREXDSk5SWloo+ffp4i3206Ccf69evbyTgDx48EJ07dy6XZs2aNcXx48ejlpefYwSMEbAmycWLF0Xz5s3LCHPdunUFWv1ff/21zPWCggKxZ8+etJn8+vWrgOm7TDL5HL0L4nBgBOJAwIok9+7dE23atPGEuUuXLuLy5cup4RCGRDNmzPDukZB36NBBPH36NLBsd+7cETCBp2fUI+4hDgdGIA4EIpMEG5zkIda4cePEp0+fyuR5//795QS9atWq4siRI2XiqX/Onz8v6tSpU+5ZIkvt2rXF2bNn1cf4PyOQEQQikQS9xOLFiz0hBll0uwL37t3rxSEBx3Hp0qWBhXny5Ilo166d9llKBwTkwAjEgUAkksAZXKNGjVJCjBb/zJkz2rzOmjVLK+jpSILEsNvQrzcJ0xtpM8QXGYEICBiTBL3I1KlTPeGfPHmydkoWPUvXrl29eNQD4Lhu3bpQWYWSD2VffhbnIA+GZBwYgTgQMCbJ3bt3RVFRUUpwMR176tQpbT5xHfdVAa9evbo4ceKE9hn1Igi5bNmycrNkeD+miDkwAnEgYEySbdu2eYLfr1+/cso6ZXru3LlePJko2Hb77Nkzipb2+OLFC4FZMzmNHj16GK/AQz/CVLXr3+DBg8WGDRsE9CgOyUTAiCRYmxg2bJgnsH7DpqChFshjGqDDyCSBIzz0MmED4mbaeR7WhPr27SuuX78eNlscL0cQMCIJWstWrVqlBDZIL/AbajVo0EBcvXrVGBpMGUNZJ6KsWLHCKA2QBD3g+PHjvR96AJ2+g2u4J8dVz4cPHy6wz15dLEX+YEKzYMEC8eXLF6M8cuSKi4ARSdCTrFq1KiVAK1eu9BWEKVOmeAJNgo1j0PAsCCJ53cTVzJbaK1I+MSMXNmAoOG/ePAEbNXoeR5AHupRJbxf2nRwvfgSMSBIme0FrHH7Ds3TpYuEQC4gQQFdKO/Qi+YtZJNz79u1Ll51y95E/9JIyUdAjRUmrXOJ8IesIOCcJBEM3DLExJZEXJQcMGCA+f/5sDdylS5dEvXr1ygi2TR51a0KYAtctslpnnhOIFQGnJMHwAh/7lFtUOofCH9UoUR6+LVq0yAlA8iwd5bFXr17i3bt3kdKXiUzpBU2RR3oJP5QVBJyS5OHDh6Jly5ZakkAoo4RXr155JvOu9BHkQyYeCbWJPqKWRWenhnTZfEZFKvf+OyWJ31ALm7Bu3LgRCR1ZaTddY/F7IfwHY62FyIEjhog2OgRm3OT06JxJ4lcLuXPdGUmChlo2esTq1as94cNQzsWMEQhLuydJmG30EVQ3rKApLfmYVJJg6Lxx40Yxbdq0xFs/OCOJbraIhCWMQaOuXYHpPaaNkQ6GWnCa7SLo9AcbfUTXMyHPJiY4LsoVZxqYPEHjh3JGnbWMM78273JGEthjQSiIGHS0ERQsPNLUKkznXZl+uNZHdD0Typ/02S2a0XPVw9sIciafdUYSvzE5VuijCrds/2WjVMsAYvYKvQaRGEdbfUQeElK6SHPt2rXyqxN3TpYQmKzBpE1SgzOS4BPRJCDyMao+Itt/uZxK1bX6NvqInE+53DDKxIp8kgMNsdEgbN++3UlR4XVn165dKS87MEbt2LGjmD9/vtbbDvRT7GWChx4yXG3btq3Ax55cfprDCUnk8aksKDiP2gMAdICPNFw6ftDNwNnoI9BvZLsy5BdDxHzZXky9vQ2GxC7Yu8FOTpUh/Mcmv3PnzlHUlCGpah0uPweLB5gGubChc0IS3RCGMhxFqZMVdhS2uLjYA8f2xKU+ojrCQJmR3zAeYWzLUVGev3//fsoZCBqKnTt3WmUL/tnQMGKIjh7i9OnTokWLFh5p4EQEQ/fNmzd79nL4bg0aPvQc2GO0ZMkS7x7qA6SzJUrGSRJlClRunQcNGuS7Z8W0RnRkRqVEWR+BVxiyiKYGAZbR+fiRU+hewBGec9BwRAm3b98WhYWFqY16sl81eRiPd3Tv3j1laY3GCMa2GJ6pgfKDesEztrqhE5L4WdQikxB4kyBvsoIuIgNmko4urgt9BC3npEmTypnZY/YN6edjgF5GnnMw0xWl5aZhmzq0phk0aohwhNV1kFypLqlsZ0adkASCoRvGoEAmayRQxGQvLHBQF9XeSyesOn0EY92ZM2eK3bt3l/utWbPG21eCPSRNmjTxun6qNFQYxr6qOyXd+5N87cKFCyldDC339OnTjYhCpkfqWpiu8Q0znFVHDMiTzcSCM5LoBBCCZLKLUHb8YNN1+wmjH5FJ4E2OrVu3Fps2bRLv37/3e53++rNiMbnNb6LgT3d6lv5F8V9F645Gw5QotMamtvg0eybXS5ieSiUJnodFRNTgjCR++0gwzsR4M13AbkZaOERrEUVPCHqHDjiAB/MUmj7UHaF3oBeBAgiSQcd6/vx50Kv09z7eFvvnDhSFVSv93Rv9kUy/YUQUYDt06FABp+fpAg2p1EVJeR8R0gP5Dh06lC65lP8D1TYPw8GonzR3RhLknGYnUCD5p/PuSCXFEGvHjh2ejy0AkYldfTp9xMYagPKvP5aK87t2ijVzx4qxfw4UXZvWEr8pmFRKKEmABxYZqcGDo3RYgOsUbMT99u1barShGxJhZlSWo7DrWZjpkmfFkIbNFLVTkkCB69+/f5mCUSExpw0lnDZM4Yj/cJ4AgBAPR+gkfoDqBTLcVbRwlBc62lgDBL91vxgrk6JqLdHq3yNE76ZS4xGRJFCK169f7+lK6v77ivIfNndVqlTxMDcdnqLxRM9CdYVj2IVptQfCsxWGJBAcjNFROBJ8uZBB5xjLQlEGOJkIOn3EZiNYcB7/7kmKz94Wzx6/FX+lIt8W/+tgT5IrV654rXQQnhX1Hsjz8ePHYPiESLmdUrdXh12Y1m2os6lrpz0JlZxMC9B6pKsskKlbt24ZdcXjZ6UbZaGTymh+dEOSXO1JoJSjN6eRRDr85H1EkCHMfKVztE5p6hrEsASjNORjRkhCL0CvcPPmzZSOATc9smIMC1noMFh3yHSIVx/xK40bkvilXpGum+gkfvlWe4Ow+ohfgwiCRg0ZJUnUTLl+TgUcLZOrXY7h85ofJIkyu6ViaKOP6BpEm52xyFtekETX/dqMUdVKDfc/+SShdS4MobGCHmXlHVjS4qI8VA87XNI1iLZ1nXiS6AAH+PHqI6j6ZJOEfI+BIKYr7mojE1UfwQo9zFpkcqmr+Oq7wvxPPEl0/rWy86Ws5JLEhe2WLKxqbxBWH5G/eEBEsZn6pTwlniQq4AAvfn0EcCeXJLSI7MKUSKePhF0tV3eIujKQTTRJdICDJCb2ZNSa2B+TSRJqvV3sJwHGuuExzOXTBXysFvtNqAfBETsUIQO2IdEk0RnIAbz49RFUUzJJQibuLoY1QEnVR1BfquGjKvQggmw9jmf8vuOpPhvmf6JJUlJSUs6DS+bstdLBnTySUCMEZd3GFF1GTrXXgsAj/a1bt8rRypzTrBri4te7d+9QhpVlEgn4kwiSYKrx6NGjqf0gc+bMSdk1wXKXPNETeAQ4LETJqhc6CyyOw1irBuAY4lbySOLaW4rf8Bj1pvMbAMsOOMiDSRPVcVjL4xAV5kVJBEl0XTSBFuaIliqMCbaHWqST5JHEz8Q9Ejw+9lpozNAzoB5BBvyH1Tgcp8tmT7jnyvGDmv9EkASeHfGFKZUQAE42hZFbHDku/EZF3ZutAur/P1kkwd4M2rLrSsdTGztqvB4/fuy9S643nGPv0dixY0Vpaak/9JZ3EkESSwxiejxZJMHCnWtfwKo+Iq+PYCgGO0B8xHXixIkpi3HonGENJm0qmUlig57Rs8kiiVHRQ0QGCdSPv4ZdHwmRvFUUJokVfCYPM0mC0KKZMnk4FdZeKyhdF/eYJC5QDJUGkyQIJnU3IfQR134Ogt4fdI9JEoSO03tMkiA4g/SRoOfiuMckiQNlvOOvE2KyvMf9Pzt/buuNKwMV9z06/1quVvBdlJpJ4gJFTRrF/y0Uhc3/+dUiV0KKgwg5zsC1mZvG1GSxwlzSfWsTe4AqSmCSZKgm9v8hOX0o+L0MYf4hxu+iQCLNv5am90+WoexmLVlM4cIBCAwkZaUd/nsx41URApOkItRCnuUBxBgyZEgZUsgEUc+hxMNbZrYCkyRbyOfxe/GJhKKiotAkMfGUkglYmSSZQJXTDERANkjVOSpXr+FzFsY+lwNzYHaTSWKGF8fOQwSYJHlY6VxkMwSYJGZ4cew8RIBJkoeVzkU2Q4BJYoYXx85DBJgkeVjpXGQzBJgkZnhx7DxEgEmSh5XORTZDgElihhfHzkMEmCR5WOlcZDMEmCRmeHHsPETg/4MkDVHU9TiiAAAAAElFTkSuQmCC;rotation=347;" vertex="1" parent="1">
          <mxGeometry x="149.06" y="180.25" width="49.75" height="24.5" as="geometry" />
        </mxCell>
        <mxCell id="KhGMIewLTXNn31ryJmVY-3" value="" style="shape=image;verticalLabelPosition=bottom;labelBackgroundColor=default;verticalAlign=top;aspect=fixed;imageAspect=0;image=data:image/png,iVBORw0KGgoAAAANSUhEUgAAAOwAAABeCAYAAAAg0fhqAAARS0lEQVR4Ae1d7W8VRRf3P7jfTeyHfqhG86BEqZpQrSaIhjaiUh8VTH2pEg2iwhVBxDfiC0E/1ErUBhM1j6L15dFikKIQCSppIsSLURuVWIxoY1CrPloNxvPkd+Esc/fObHd2Z/fe3T2T3OzevbPz8jvzm5lz5szc40iCICAIZAaB4zJTUimoICAIkBBWGoEgkCEEhLAZEpYUVRDILGEffvhhOvHEE2n58uUiRUGgMAhklrDz5s2jUqlU/bzwwguFEZhUtNgIZJawjz32mEfY+fPnF1uKUvvCIJBZwm7fvt0jLEbaSqVSGKFJRYuLQGYJC5FdfPHFHmmh00oQBPKOQKYJu2PHDo+wGGVvv/32vMtL6ldwBJwS9tdff60hEBuF0rzecMMNBRepVD/PCDgl7K233tpwwqJzkCAI5BUBp4SFHpnmaKrLC2uzEgSBvCLglLAAadeuXal8dJ3DypUr6aeffsqrrKRegkA2fYn9ZJ09eza99dZbIk5BIPcIOB9hk0bMT9Yrr7ySJicnk85W0hcEmgKBTBH27bffrtGR4Z7422+/NQWQUghBIA0EMkXYM8880yPsOeecQ99++20aGEkegkDTIJApwsJnmC3Dn3/+edOAKAURBNJCIFOExfQXVmgha1rNQ/JpNgQyRdhmA0/KIwikjYAQNm3EJT9BIAYCQtgY4MmrgkDaCAhh00Zc8hMEYiAghI0BnrwqCKSNgBA2bcQlP0EgBgJOCIt9sE8//TRdeOGFdPzxx1fXStva2mjBggW0adMm+v3332MU8dirf/75J3333Xf0yy+/HHsod4JAgRCIRdh//vmHRkZG6KyzzvIcGtixQb12dXXR2NhYZFhB1Mcff5xOPvnkaj4nnHACPfTQQ/TXX39FTlNeFASyiEBkwoKsGFUxkqrknDlzJuGjPsP93Llzaf/+/ZEweuKJJ7yRm9OFm+Inn3wSKT15SRDIKgKRCfvaa695ZMU0eOnSpfT1119XccCU9aqrrqoj7T333EMguk3AFPiiiy6qSwtb6r744gubpCSuIJB5BCIRdvfu3TRr1qwqiUBWTFf9RMSBaDwa8vX888+nb775xgq0bdu2UWtra11a6BBEl7WCUiLnAAFrwuJEB+xBZRLeeeedBB1TDSCv7nyn0047jUZHR9Wo095DV+W81Ovdd9897bsSQRDIGwLWhN24caOnT1522WX0ww8/1GFy6NAhuvTSS+uIdsopp9D7779fF9/0wDS1BnFff/1102vyXBDILQJWhP3+++8JFl8QBtNUE2kwimI0VUdE3J9++um0Z8+e0GBCR4Wu6k9HDE6hIZSIOUPAirAvvfSSN7r29PQYDzyD9dhPMnzHqIvRN2x48803vfzU9GzTCZufxBMEmh2B0ITFmudNN93kERGk1AU4SVxzzTVePJVotnon4qvv8/0dd9yhy9r6GfRxHDze2dnp9IO/ELn33nvpgw8+qNPvrQspLxgRQJuEDcW1/OAAhHRxJNEff/xhzL8RP4QmrDo9DZqSfvzxx54FmQmGK6bQsPiGDUH6K7ynXARYu0899VRtp6CWPc79GWecQU899ZQzby8X9c5LGgcOHKBzzz03UfnBWeeBBx6gn3/+uSlgC03YLVu2eNPToCWVdevWaQEMmkLrkIBThHqGE5MmiqVZlz6eQeAYCdGb4lMul+mCCy7Qlh/P8TvH1V1RR/bG4vLyFWvJ4uhhkkS055ghob2pssAxQuwey9jjevbZZ1f/e0mN67+/+uqrtU4/eB/efO+++260gjp8KzRhceDZfffdVwXnnXfe0RYBAKLRqkDxPYC1CSb9FSclTkxM2CRlFXfnzp100kkn1dTBxknj77//rh5jAws6152vcby9rCpR4MjqTJBxhzwh1zABS5L79u2jG2+8sY748D3ArKyRITRhwxRS19gBWpRR0aS/Yn3X76QRpmxh4zzzzDN1RAuaUZjSxdo0enBuNHzt7e0Vhw8TaA6e6xxtojjsoI3BIcg/WmOmhJlZo4JTwppIBiOUzY6dIP0VhEoywKDF5OIrnDeiBF1vjwYAa7uEZBDYsGFDnfxgLI2yUcTkT2A7W3RZU2eENfn8otGbLMqmipj0V5upjSntoOc6AYFgmJ5HCfhHgiuuuKKuAd1yyy2RGlCUMhTpHf9KBne4/f39kWAweezZ2mMiZW54yRlhYQLX+fxi3g/LsU0w6a9z5syp7oe1Scsmrq6jsNFf/XmZZgpRptj+tOV7PQKwbcDGwUTFNW4nr/OJP++88xp2iL0zwrqaDkMMprSiTm3qRat/As8tVdi4j0MuzDrQybhMU19yeQoEdMt0UfRXRhPnYMNy7Jdf5gmr69m4krbTEdOohPRs02Lgw151HUVU/RV5wg0T7piMBV/jdAJh69KoeNDbgSPWypM0DurqpzMYxunkTR1u5gnr0jqsM9Sgods6XugEGvRMp2/G0V+Rl27ERl3iNKKgOjTDb2ylTXr5zV9Xk74Zp5PXjdiQXyNdY51MiQEKjx7qNUrFTPorPFqSNKe71l/RoHQjdt6txNzhRlnK85PQ5rtulhdXf9WN2GjfmbYSmyxzqFgUn1/T/tfrr78+Ub9OXUcRZ+pqsppjtxN2PeU1wPcWsoL844xutvjodojF0V9NPvHweKpUKrbFcxY/9gir69l4lLX1+TUp+UjPpEtu3bqV4GyPD5ztowbdaGjKM0we6s4mxgOj64svvhjm9UzH4ZEpzeUPzpOxxjWO6oF929i/raaHe/yheNq6udoYYhMWLotQwv0Vg1O9rRsXT6f8aaGhw5fZH9Te3BTH/47uu87QhfSirr/q0kOd4PnkP51DV56sP/vyyy+rTvlBe6Zd1hEEWr58eV0bjDrCY9aoc6CBxRjut40MiRE2is6pbjBQSWtaC8X5UJj2IG7QDqLpAHapv6Lx6FzamkHY0+Hg8ne2a+A4oaQbuW6WF0d/VQ8Y5HbYLH7giRE2iunbpL+adElV7zTFCdMI1XRYQFHSg97zyCOP1Pmf3nzzzYk32jD1TDMOn06CmYrukD6XZXGlv2LjxrPPPuudBsptAcbTJA2eNlg0DWFN00iABv1SF1S9M+r0B+mq6bCQbPRXTHPfeOONuuNYceD5o48+WohpsE4+PFLBYvzhhx/qojh5Fld/5R1Wl19+eU1ni84GU238s0WzhMQIaztFHRoa0ro2gkC6s6NUK2ycJQRTR3HddddVe9tXX32V1M/LL79Ma9eu9fZg4u9I/Iepo8zYXodtWkUO0AVXrlxZVVlwKsRHH33kHA6T/nrJJZfQ4OBgjexYjpgF8V5YqCq6PczY/4z9r400MOnAik1Y1fDDoxOuNjoELHJ8zrGaBt8PDw/XlV31XbbdDaQmptNfOV/bK4gL31MQ1UrQUxUa7G2nln8P0rhauBzcQ3+99tprEyOtTn+1lRvHx4wIZd21axdh1DWHKRrbPEDlhd3U8a+WI8au1hnU0dlDfeuep9GDU+ZXY/4Sm7DI33ToWpgF5unICjD9hFXXyOJaInX6K4gHo1nQWUFYsuBeGjoa1uasLcBTEzT6nzJ1t5WOCL1rgKL/A1HMlpDg6yppMRsC5lYdWkDZdPoriNfR0REoPywD8gkiGHGxohHq/KaJEVrbxX9P00btnR3UzvIrHZVjqY267x+hicMBBY/4kxPCsoGBeyq+wvH9q6++0hYNPdhzzz3nTUegL2BzsG566ddPsZaJ+MgninFILZBOf42zfqemXXs/SWPbhuj5/tVUXrGEFnW1U5sn4HwTFjhAD+TD5SG7xYsX0/h4/PmETn+N4mFXKyvDt0PDVJ5VolLrHCq/MkZTCiGnDu6kgd72Ix3vUbm29w5SRYljSNXqsRPCIkc2MDBZ+QpdADrojz/+WJ1mYN0WTgXq/+VAgBiNIVRYVPldvoL4e/furY5gsOKxzoGF7ffee8+qwmpknf8w8sQmaPdhjAa6uAfGtY3aFyyhPvVZjBH2s88+qxrPeNRvxitGNIx8LNfIKsRR4WCU5k6A08Q1iofd9PIep8GFmP520/q9pinvJA0vqyXtnAft/uliunI4IyzAg1LPZFIBDLrHFAmGHJ4i4R/usOYV9A5+A8njLhfo9Fcb3Xs6cGt/PzLCDu2o0MTBCa93Hl6mkDgGYUHQ6TBr1t8xhYVNwjaY9FdbD7tQ+W5bTTMwci5YTcN7A84UOzREfa2KTEs9NOjwRBlnhOVKo6fHuUU8ZTU1EggJo6luWnTw4MHqlMmUBnrmJ598chrDAJfIfNXtpkl7l4krwmZ1hL3rrruqahN32GZp1f+i201juzpRn6r+yeiDx2YGpVILdW8wWxtGVs2o6Ty7+81x9bmZnzonLGeFZRdMX3H6nGq8gRkdZMPvQQECRCOEQQDvIA0c8LxmzRr69NNPg14N/Vt6+qu5SK4Ia86hOX5JQodNU3+tkRNG2pmryXQO4+SmvhrClhYOUsCYbCWgxAhrVYoGRNad34TZABpBmqGmIcSYEqdZZtu8krASm3aJoRNOIoysOLp8w4bC2WvJqJ1uLtcS1qFcC0vYdPVXcxPKO2FBVsyQ0BnCeAjcXYRU9VcUeN8A9XjLN+1U3jxproYQ1oxN1F9gmPDr12nrryh7ngmrns3s2tNJd8pJUvqr18amJqsGw4n/eU+0N+MbumvaVsuKEW28KA8LO8Lqtk8lfUi5TkB5Jiwv9SXhS6w7fxhHymKprrFhggYXqlbiFup7xV2ZCknYZtFf0bDySljsbsFau4vlNz8B09Zf/fkHfj8wSD2s5+LqUH9FvoUkrM6dLcqG+0DBhfwxr4SFIwxUjiT2w6r7oFW1RrdJJKQYHEWD44SypNPaTQOO938UkrC65YBG6K9oJXkkbNInTvDJjCpZE9dfw1B6x2pq90bXaQxTYdLTxCkcYWEIgR+rKmzcJ+M/rEHc9yiPhOUOMYkznbA+j+2Nfvkl5j/sk5fxK/sZVwnbTn2b4vtJ6/LKNWHh5gh3SThwrFq1qrq7xvT/ofjjZWyNg4sfXB7xXpKbrlkYeSOsut3Sv2mD6xz2iqUbHAwAiz7WVyEbbPaAl5yfsHCJhecc4sDZBvLbvn17Ov9hdLhCA/N5m10Hlf/ryk2iHqncEhY9se5gLr+gg75j/RAnOSYZ8kZYPkgvzqECjDefCxUko6DfsO47nUcd5xX9qjj8t/XQ+t3uLMK6MuWWsCAab5xWhQqrJf6Nm90lca/zWcYzHO+SdMgbYfkgPRc2AdOGBuirLD/s/tGNuJD5bbfdlvgIW+nvphZMg2f10dD+pFtLQa3EycMaPoe8ERYjLKavmMZGcegPj1zjY1Y29FT3NLfMLtPwIX15xncP0dC2MXI17uZ2hNXD13xP80bY5kM4mRJNbi5XLcIt89fSqIGsRBVaP7dEpcVDQthkxJB+qkLY9DGPm+PU3vXU3VqilvnrqWLay45MDg/TklKJOhxuYpcRNq70Yr4vhI0JYNqv7xuokjXU8S9HN70v2ujOaiyETVvgvvyEsD5Amvmrt9baQYuWlam8IuCzdBHNqZ6oOINW73BXKSGsOyztUzo8Qc/3Ko7ic9c7P7TLvlDyhhYBda3V82ZSZGd81k0DDq3HQlitdJJ5OL6xjzo6O7xP/fGYaABHjs704q1xtzUrmVoVI9W6DexGgvpI3FomlxIUwqbY3sb6lX2S1YOnj5HXI2hnB81QD/FaVn+IeopFlqyOIlCjuoQlK+LJbh1pQ4JAcRGQEba4speaZxABIWwGhSZFLi4CQtjiyl5qnkEEhLAZFJoUubgICGGLK3upeQYREMJmUGhS5OIiIIQtruyl5hlEQAibQaFJkYuLgBC2uLKXmmcQASFsBoUmRS4uAkLY4speap5BBISwGRSaFLm4CAhhiyt7qXkGEfg/B9bbrFZEk9EAAAAASUVORK5CYII=;rotation=41;" vertex="1" parent="1">
          <mxGeometry x="138.56" y="265.5" width="60.25" height="24" as="geometry" />
        </mxCell>
        <mxCell id="KhGMIewLTXNn31ryJmVY-5" value="" style="shape=image;verticalLabelPosition=bottom;labelBackgroundColor=default;verticalAlign=top;aspect=fixed;imageAspect=0;image=data:image/png,iVBORw0KGgoAAAANSUhEUgAAANkAAAB5CAYAAAC0ooSYAAAShklEQVR4Ae1d/49dQxv3H9zfJVbSH5aQtzRsNdGl5K0SNm3IxpesIC1L1Evbq8oSkU1R9W2t8tqU1OtL2SKxr2iWdKMpqi/KVlL1LVqxuihWlZIVz5vPbZ9j7tw5986ce2buuXueSW7m3HvPmS+fmc/M8zzzzJwjSIIgIAh4ReAIr6lL4oKAIEBCMukEgoBnBIRkngGW5AUBIZn0AUHAMwJCMs8AS/KCgJBM+oAg4BkBIZlngCV5QUBIJn1AEPCMgJDMM8CSvCAgJJM+IAh4RkBI5hlgSV4QEJJJHxAEPCMgJPMMsCQvCDQ9ye666y465phjaNmyZdKagkAmEWh6kp177rlUKBRKn2eeeSaTIEuh8o1A05Psvvvui0i2YMGCfLem1D6TCDQ9yTZt2hSRDDPa6OhoJoGWQuUXgaYnGZpu/vz5EdGgo0kQBLKEwJQg2cjISEQyzGZLlizJEsZSlpwj4IVk+/fvL+v0bJgIGV955ZU5b1qpflYQ8EKy66+/vuEkA6ElCAJZQMALyaAXhZy1THlh7UyCIJAFBLyQDBXbsmVLkI+J0CtWrKAff/wxC/hKGQSB5j6tSifY7Nmz6ZVXXpFmFQQyhYC3mcx3LXWCXXzxxTQxMeE7W0lfEHBGoClJtnHjxjKdD65Vv/zyi3Pl5QFBIAQCTUmyU045JSLZaaedRl9//XUIrCQPQSARAk1JMvgoskXx448/TlRxeUgQCIVAU5IMoiGsl0KwUN1E8qkHgaYkWT0VlmcFgdAICMlCIy755Q4BIVnumlwqHBoBIVloxCW/3CEgJMtdk0uFQyMwZUgGi+Nff/0VGj/JTxCoiYAVydB53377bVq8eDHNmDGjtEbV2tpK8+bNo4ceeoi+++67mhnVuuHPP/+kvXv30g8//FDr1uj/X3/9tZT/CSecUCoT4scee4yQlgRBICsI1CTZ2NgYdXd305FHHhktAPNCMMcnnngivfzyy4lnkldffZVOPvnkKP0rrriiphc9vOxxH5eBY5Rz7dq1WcFXyiEIVPfCf++992jOnDllHRkz2KxZsypIh99ffPFFZ0jfffddamtrK8sDhHn88cerptXX11fxDBPtnHPOoW+++abq8/KnIBAKgdiZ7IsvviiJg2rHfeONNyJRzNTJzzvvvJLIZ1t4iKE9PT1GsqxZsyY2mX379tH5559vfA7lnTZtGr322muxz8sfgkBIBIwk+/nnn+myyy6LOvGll15aIb4NDQ1F/zMRIapBbLQN4+PjpB5OyunUIgkcgs8444yK/Pl5xOvXr7cthtwnCHhFwEiyhx9+OBIHYdzArKaHl156ydjJMcPZhs2bN9Oxxx5bkQ42X3766aexycDgcfnll1c8p5LMpRyxGckfgkAKCFSQ7LPPPqPTTz+91IGPP/54gohoCnfeeaexk999992m242/mUROEOWSSy4hzKbVgklfVElWTdyslq78JwikjUAFyVatWhWR58Ybb6Q//vijIk8QAERQOzVf23bu3377jRYuXGhM49Zbb63I0/TDrl27yvRGLgNiiLMSBIEsIFBGMljkYJlDJ8Us9uabbxrL+OGHHxotghD9IALahK+++orOPPNMI8kgitqG4eFhgmVTJVgtnc42bblPEEgDgTKSPffcc5EuBp0Huo8pYMFX7dR8DSMGjBk2AdY/kIGf5Ri7nj/66CObJEr3YKa97rrrytJxTYMzA7mxZJH256qrrqJ169bJsgIDnbM4IpneWePWqaoZHWzFPGB8//33lxGDSXbRRRc5H4gDi6a6WO5Cdm5vLCf4PpQVZYTVdseOHZytxDlAICIZRMW5c+eWOj48OLZt22asPkRIiJJMCo6riZd6QmnoY2qa77//Pp100klRma655hqjLqk+o1+DZDD733TTTdEHM5AuiqK++A3/qffq19deey3h/BGV/IzVUUcdRffeey/9/vvvejHk+xREICIZZrJHH3201HEeeeSR2A6gGka40yDu7OysWEuLw2vPnj2RBVNNw3WdjdPX180wS6YRgAkIq5YR17Cs2gb4dd5zzz103HHHlaWDusLvE+SWMLURiEhmU81qnhYu61Jp6WNcZpVkaRo9TIvlSQeCrVu3VhiLMCO6LN5zfSVuLgScSBZHDvgewuJoG+pZHzPloYqLtRayTc/H/aamy7NZPemb1hZdJIC4csrv2UbAiWQwbHBnU+Nqlki9+tX0MRcxTE0XXvys+2DtDXmkEaCjqfXEtc1CeVzeJi8ZF102Ll35PdsIWJPMJDpxB4RJ3zbErY8lFcOQrzpDuIittcpsGlSSDgTIy+TvCQxl4bxWSzT3/9YkS0tUTOqvGAezOjO6LIbHpce/41x9LCfwQIK4noEA6cIbRk2Pr4VkjPrUjK1Jps4W3DkQu4pPcR3NNR1uDjgSQ09CWZKsj3E6eowFcfU4cKRfjz6G9OGmpmLH11OVZLDOPvnkk3T77bcTLMp5DVYkwy5kKOjcKdTYRXyKM4kjPZeFbLWxVL0Je9PSMomb9KekAwHKa5oZUe80Z18Vlyxcq1JGnHNDFsrpuwxWJDON6uggrubyanqdi78igwLSsksVyoK3vaQV0tbH4jCc6tZFloCWLVuW2gCYVhuHSseKZKZRHSTDlhgXMQBrRXzoDZ7nD7w1YC53Deq2nDSPHDDtMqhXHzP5eyLNqX4eCevycAaH0SuPwYpkcX6G2DHt8l6wOLIm1aUggjBR0xQVTbNOPfpYnLh9wQUXpHLSV5Y7LksvGFDggJ5GwGlkGzZsoPnz55ecuRGvXr2afvrpp4rkoT7wSWvs+H322WcTXiIZ6pVbViRbsmRJ1Jm5UyOGIu8S4hahk6xtqY7KrmJrrTLrDseoaz36GAYXlFHFDgv4mNnzENgVrx4MGSf4e8JPVMWSr3HA0zvvvMO3lhyxMZDx/3oMjxu4tvn2Ia2LZK5rUnEkA4ldg+qonLZek6Y+ph9IhIZG4yY52csVo6zc/+WXX5Y212KgGRwcrKtYfDQGnNkxQ7311ltl573gMCc4uz/99NORvyjeZ4eBEzMX1JsHH3ww+g/tAdL6JFpTkgwiAJ9ylbZek6Y+tn379mhnA4+i2OGQx5fHQ/dEW8WdGWPDPOyEb29vL+0CUY/FUCUt5HHhhRcSdjpgMIPTu+mwWy4P2iXtPqTXxYpkbCHijsKxq7d7XDquM9no6Gjp7EeUw/UYOh0A/Xsa+hhG7ltuuaVimwyMM0g/jwF6KXR4tBksjUlmDhY7YVGGZZmDqV9h10M1i7W6vooypWk443JxbEUy1cDABEOMTY6261I8CqnP87WLAQWNg0bCsz5GIJM+Bll/5cqV9MILL1R8BgYGon1l2EN26qmnVugAaHDI/nE7zbkxpnrMB9mi3e644w4novEOEH2pxrT2aiOO6xILypSWYUZvRyuSYQMnxBwmBce27Acx4pRVpOVi3oUuAxDxXBqKtA6ISR/j+rrGZ511Fj311FO0f/9+PZuy7+Pb/0OruzupvY3PKmmlmXM6qGt5Pw3tPFh2b7N/weyCQceVaOyOp/c5tl6qbWMzU+okw/OuhjzbtrAimWrJUytjO5OoxFCf52uk8+yzz9Yss7ony4d1zgQ8ygj3Kjb/mmIo4ZjFMJCApHCT+vbbb2vWhw6O0sDCdmoprRm20PTZ7dT+jxZtMGuh9oUDNDqFuMZEA7ZXX301ff/99zWxYpFQX9TW117Rl7Aro1YweeC4SFS10lf/tyIZHoCiaTp2AJ097lQriJIQsXhXMACAud6UDhRiiJRxAXlAbEPDIB0fu4pN+pg3t6fJUepfAELNpK6+zTSukujALhpcPvcw+Q4t2rfM66HhfXHoNN/vWKRG30F74mUjcI8zGShQs8nJyZJqgnbXRTpdlbFdz1Q3+qIM+PiQjFB+a5KBMOjYqCgXimOQCE6gn3zySQko3Pv555/TihUrSlYevg8j/cGDB2PTAdjIg18WAdA/+OADuuGGG6J0kD8U4CSKc62uiBGWy8oxZikuT63nXf7ffNtMKhSm0+IN8ad7jfZ1lBOte5AmLDIBNk888USkKwL3LH6wD/Hoo4+OMLcVrxkC9DPWz7m9bNdc9RkQzzecZKgYKqWuP3DFbGIYSVg3QSfAQTIws9o8y/fgfpAwbsRj8JPGJn0syaE8NfPfM0CdGD1nLab+kV2kTmJlz05uo95//u1+BlL2WLxHAwMTzxKMXTPFIN+BAwfKoDB9MeljECttgupYzth4aWuXmUwt+O7du6lYLEYGCC6kKWbLmmnmwdFoeMeYDdmg8I6MjKjFSPXaJKOjPj68xyfWLyobXGYuH46doXb/u3z3Q8vS2icjN+tMhjaGNGG7s103yLl4/pgGVFuCunY8a3HRlDDAgGzd29tb2gqjGgWgRGIh0OYtnFhDgbEAa0vsj4a0IKotXbqUtmzZ4m324nqF1Md29XWUkaxQ6KKBMS6JFv+vl9oVZ+rCjB6yO6NZSydjX110srii67ORrT4WN6CC4D5CXSTzUaBGpak3GGaxpI7Lteqwe41OskU0GKds7eynDpVkhSLVnstqlaCx/yexLuolrkcfMw2oSU+d1stl+i4kO4yKSXzwJaPTviEqzmZTfQt19I2a2ubQb1OMZLycU68BixenVRXFVtwzDaje2jqpThbfI5rzH1OD+dLHIoQmD9L42DiN74s1exy6dWOxzMJYWNBPu6NEmuuC1zlBMFePD72mSfUxdaMvE1T3ItHzqve7zGREpQ2j6jHfAB+bS9EpGh023za9TH+bu6rKrNfowlbJPw3fRTV5fTay1cfUjb5MMl+mey6vkIyotBDKgHPsSx9j4K3iyWHqmaGY8GcUaShOd7NKsHE38RaVerzwufQmfczWW0PfoQ7HCNWjn/NIM849yUwNBqK5OD+n2SBqWuVWyJlU/G9zMoxnjzT2kwEfk3hvs5Nj7969pV0bPJAixg5p9AGfIfckMy1oAnwf62NODblngLqm8SxWwzjilHD4m3mLSlpima6Pob10x2G9liDSAw88UCZ6Y/aDGOs75J5kmzZtqng5vDd/RdvWjPwaQbIW6li5LXax2jbJRt3HgxiMHbrfYdIy6f6KIBnSr+ZkzlZN3ItPV1eXlWNy0jKqz+WGZPCCeP3110sOy3h5PHz54DlvOj0LDYbTg3EPTPtQsrHPzMZbXAU32fUEDS2FXyM6Qyt19o3Gu10lyyDoU2mfVhUn3gMv084MuODhgFV2Usd9tp7/aQGVG5KZRIxDHZlFsuoxiGezhaLehomcgqe10+L1zWqs/xuFuC0qf9/hdsUzo9p2GAwxM+E3kAnfn3/++dLbXOF0zPdWc/FzK4Xb3bkhGQ4+NflIAnjVHUwd8bhxEGNjKQ7F8Rkm/lukmZjBpnVQ79bmNHKo+OC4QOg9wC8tHVcfLHnwGxsbi/JS2w3X2OQLX1v43DYi5IZkjQDXJU8QrB2GjtZO6o95pfTEzmEa3LCtaRajsfCb9ln4uj6mro9BlNy5cyetW7eObr75ZsLRENC5bR2OXdrL5V4hmQtavu7d0U8dIFjbIhqsMlkO/atAhdm9ZH6bt6/CZSddkAhLK+pMZbs+1shaCMkaiT7yHh+iYhsIVqSh+P2bRDRKq+cVqGC5cbPR1fKRv0kfs/VX9FEe2zSFZLZI+bgPjsJtBbI6WuDwRs/pt02FjS7JwNR3M0Mfg9U360FI1qgWitbCWqmju0jF5dU+i6jz8ElWXWurTneNqk2QfKvpY0EKkDATIVlC4Op7TF0Lq750oOofWJgupvd2qPqqEPhp0/mKaXmQ+K6KkMw3wob0Kzdt2hKtg/qrGEYMWU2Zn0zvGoejQDMEIVkDWqnc8deWYLiv+XdFJ4EbJniY4+FgrM7sOM8eFsesByFZ1lsop+UDsbq7u8tIpRJMv4YRBKc1ZzEIybLYKlKm0iuO8CZXnUxx311OqgoNr5AsNOKSnxUCqkO36UUf+m94HRWf62mVQcCbhGQBwZas8omAkCyf7S61DoiAkCwg2JJVPhEQkuWz3aXWAREQkgUEW7LKJwJCsny2u9Q6IAJCsoBgS1b5REBIls92l1oHREBIFhBsySqfCAjJ8tnuUuuACAjJAoItWeUTASFZPttdah0QASFZQLAlq3wiICTLZ7tLrQMiICQLCLZklU8EhGT5bHepdUAEhGQBwZas8omAkCyf7S61DoiAkCwg2JJVPhEQkuWz3aXWAREQkgUEW7LKJwJCsny2u9Q6IAJCsoBgS1b5REBIls92l1oHREBIFhBsySqfCAjJ8tnuUuuACAjJAoItWeUTASFZPttdah0Qgf8Dwsvzpevoo18AAAAASUVORK5CYII=;rotation=271;direction=south;" vertex="1" parent="1">
          <mxGeometry x="589.65" y="250" width="31.64" height="56.75" as="geometry" />
        </mxCell>
        <mxCell id="KhGMIewLTXNn31ryJmVY-7" value="&lt;font style=&quot;font-size: 9px;&quot;&gt;&amp;nbsp; &amp;nbsp; &amp;nbsp;&lt;font color=&quot;#00cc66&quot;&gt;α&lt;/font&gt;&amp;nbsp;&lt;/font&gt;" style="text;html=1;strokeColor=none;fillColor=none;align=center;verticalAlign=middle;whiteSpace=wrap;rounded=0;" vertex="1" parent="1">
          <mxGeometry x="126.06" y="215.5" width="30" height="20" as="geometry" />
        </mxCell>
        <mxCell id="KhGMIewLTXNn31ryJmVY-9" value="" style="endArrow=classic;html=1;rounded=0;fontColor=#CCCC00;strokeColor=#00CC66;fillColor=#d5e8d4;sourcePerimeterSpacing=0;exitX=1;exitY=0.5;exitDx=0;exitDy=0;entryX=0;entryY=0.5;entryDx=0;entryDy=0;strokeWidth=2;" edge="1" parent="1" source="68czG8918Wwrf0z5QYm2-42" target="68czG8918Wwrf0z5QYm2-44">
          <mxGeometry width="50" height="50" relative="1" as="geometry">
            <mxPoint x="130" y="220" as="sourcePoint" />
            <mxPoint x="240" y="191" as="targetPoint" />
          </mxGeometry>
        </mxCell>
        <mxCell id="KhGMIewLTXNn31ryJmVY-11" value="" style="endArrow=classic;html=1;rounded=0;exitX=0.617;exitY=0.973;exitDx=0;exitDy=0;targetPerimeterSpacing=0;entryX=0.519;entryY=0.596;entryDx=0;entryDy=0;entryPerimeter=0;strokeColor=#00CC66;exitPerimeter=0;strokeWidth=2;" edge="1" parent="1" source="68czG8918Wwrf0z5QYm2-41" target="68czG8918Wwrf0z5QYm2-43">
          <mxGeometry width="50" height="50" relative="1" as="geometry">
            <mxPoint x="230" y="260" as="sourcePoint" />
            <mxPoint x="272" y="354" as="targetPoint" />
          </mxGeometry>
        </mxCell>
        <mxCell id="KhGMIewLTXNn31ryJmVY-13" value="" style="triangle;whiteSpace=wrap;html=1;rotation=25;" vertex="1" parent="1">
          <mxGeometry x="412.42" y="271.41999999999996" width="187.03" height="110" as="geometry" />
        </mxCell>
        <mxCell id="KhGMIewLTXNn31ryJmVY-14" value="P2" style="text;html=1;strokeColor=none;fillColor=none;align=center;verticalAlign=middle;whiteSpace=wrap;rounded=0;fontColor=#0000FF;fontStyle=1" vertex="1" parent="1">
          <mxGeometry x="580" y="362.25" width="50.94" height="30" as="geometry" />
        </mxCell>
        <mxCell id="KhGMIewLTXNn31ryJmVY-15" value="" style="endArrow=none;html=1;rounded=0;strokeColor=#00FFFF;exitX=0.731;exitY=0.981;exitDx=0;exitDy=0;entryX=1;entryY=0.5;entryDx=0;entryDy=0;exitPerimeter=0;" edge="1" parent="1" target="KhGMIewLTXNn31ryJmVY-13">
          <mxGeometry width="50" height="50" relative="1" as="geometry">
            <mxPoint x="443.86" y="236.67999999999995" as="sourcePoint" />
            <mxPoint x="580" y="367.25" as="targetPoint" />
          </mxGeometry>
        </mxCell>
        <mxCell id="KhGMIewLTXNn31ryJmVY-16" value="&lt;b&gt;P1&lt;/b&gt;" style="text;html=1;strokeColor=none;fillColor=none;align=center;verticalAlign=middle;whiteSpace=wrap;rounded=0;fontColor=#0000FF;" vertex="1" parent="1">
          <mxGeometry x="409.99999999999994" y="210.24999999999997" width="60" height="30" as="geometry" />
        </mxCell>
        <mxCell id="KhGMIewLTXNn31ryJmVY-17" value="" style="ellipse;whiteSpace=wrap;html=1;labelBackgroundColor=#FF0F0F;fillColor=#000000;fontColor=#FF0F0F;" vertex="1" parent="1">
          <mxGeometry x="442" y="235.25" width="5" height="5" as="geometry" />
        </mxCell>
        <mxCell id="KhGMIewLTXNn31ryJmVY-18" value="" style="ellipse;whiteSpace=wrap;html=1;labelBackgroundColor=#FF0F0F;fillColor=#000000;fontColor=#FF0F0F;" vertex="1" parent="1">
          <mxGeometry x="587" y="362.25" width="5" height="5" as="geometry" />
        </mxCell>
        <mxCell id="KhGMIewLTXNn31ryJmVY-19" value="" style="ellipse;whiteSpace=wrap;html=1;labelBackgroundColor=#FF0F0F;fillColor=#000000;fontColor=#FF0F0F;" vertex="1" parent="1">
          <mxGeometry x="560" y="207.25" width="5" height="5" as="geometry" />
        </mxCell>
        <mxCell id="KhGMIewLTXNn31ryJmVY-20" value="" style="endArrow=none;dashed=1;html=1;dashPattern=1 2;strokeWidth=1;rounded=0;entryX=0.467;entryY=0.463;entryDx=0;entryDy=0;entryPerimeter=0;exitX=1;exitY=0.5;exitDx=0;exitDy=0;" edge="1" parent="1" source="KhGMIewLTXNn31ryJmVY-17" target="KhGMIewLTXNn31ryJmVY-19">
          <mxGeometry width="50" height="50" relative="1" as="geometry">
            <mxPoint x="480" y="237.25" as="sourcePoint" />
            <mxPoint x="500" y="257.25" as="targetPoint" />
          </mxGeometry>
        </mxCell>
        <mxCell id="KhGMIewLTXNn31ryJmVY-21" value="" style="endArrow=none;dashed=1;html=1;dashPattern=1 2;strokeWidth=1;rounded=0;exitX=0.5;exitY=1;exitDx=0;exitDy=0;entryX=0.5;entryY=0;entryDx=0;entryDy=0;" edge="1" parent="1" source="KhGMIewLTXNn31ryJmVY-19" target="KhGMIewLTXNn31ryJmVY-18">
          <mxGeometry width="50" height="50" relative="1" as="geometry">
            <mxPoint x="457" y="248.25" as="sourcePoint" />
            <mxPoint x="610" y="277.25" as="targetPoint" />
          </mxGeometry>
        </mxCell>
        <mxCell id="KhGMIewLTXNn31ryJmVY-23" value="&lt;font style=&quot;font-size: 9px;&quot;&gt;&amp;nbsp; &amp;nbsp;&lt;font color=&quot;#00cc66&quot;&gt; &amp;nbsp;β&amp;nbsp;&lt;/font&gt;&lt;/font&gt;" style="text;html=1;strokeColor=none;fillColor=none;align=center;verticalAlign=middle;whiteSpace=wrap;rounded=0;" vertex="1" parent="1">
          <mxGeometry x="560" y="327.25" width="25.28" height="20" as="geometry" />
        </mxCell>
        <mxCell id="KhGMIewLTXNn31ryJmVY-25" value="&lt;b&gt;&lt;i&gt;p&lt;/i&gt;&lt;/b&gt;" style="text;html=1;strokeColor=none;fillColor=none;align=center;verticalAlign=middle;whiteSpace=wrap;rounded=0;" vertex="1" parent="1">
          <mxGeometry x="565" y="180.25" width="21.49" height="30" as="geometry" />
        </mxCell>
        <mxCell id="KhGMIewLTXNn31ryJmVY-29" value="" style="endArrow=classic;html=1;rounded=0;fontColor=#CCCC00;strokeColor=#00CC66;fillColor=#d5e8d4;sourcePerimeterSpacing=0;exitX=0.99;exitY=0.485;exitDx=0;exitDy=0;strokeWidth=2;exitPerimeter=0;entryX=0.5;entryY=1;entryDx=0;entryDy=0;" edge="1" parent="1" source="KhGMIewLTXNn31ryJmVY-13" target="KhGMIewLTXNn31ryJmVY-19">
          <mxGeometry width="50" height="50" relative="1" as="geometry">
            <mxPoint x="450.94" y="237.25" as="sourcePoint" />
            <mxPoint x="570" y="220" as="targetPoint" />
          </mxGeometry>
        </mxCell>
        <mxCell id="KhGMIewLTXNn31ryJmVY-66" value="" style="shape=image;verticalLabelPosition=bottom;labelBackgroundColor=default;verticalAlign=top;aspect=fixed;imageAspect=0;image=data:image/png,iVBORw0KGgoAAAANSUhEUgAAAOQAAABkCAYAAACW55xVAAARhElEQVR4Ae1d/WtcxRr2P9jfBfNDfgiitLbYRMUsTQuxiglGbfxM0dhoVCpqXas1atHgZxMlhtISLJRLtZqqV1exRoxt8aPJrd6wFWJRi6kYu2DRqFejKL6XZ+Oczp4zczJnd87Zc3bfgeV87Jz5eN7zzMz7zrxzTiMOjAAjEBsETotNSbggjAAjQExIfgkYgRghwISMkTC4KIwAE5LfAUYgRggwIWMkDC4KI8CE5HeAEYgRAkzIGAmDi8IIMCH5HWAEYoQAEzJGwuCiMAJMSH4HGIEYIcCEjJEwuCiMABOS3wFGIEYIMCFjJAwuCiPAhOR3gBGIEQJMyBgJg4vCCCSSkAMDA7Rs2TLq7u5mCTICVYVAIgl56aWXUiqVKvw++OCDqhIIV6a2EUgkIQcHBx1C3nDDDbUtQa59VSGQSEKOj487hERP+fnnn1eVULgytYtAIgkJca1Zs8Yh5RNPPFG7EuSaVxUCiSXkCy+84BASveTdd99dVYLhytQmAlYJCWNLlL8lS5YUkfLmm2+uTSlyrasGAWuEvP/++4vIIaygUR+rRjJckZpEwBohocdFTT5VfjUpRa501SBgjZBABHOCUfxU5IcOefz48aoRDFekNhGwSsgoIHST8fTTT6edO3dGkTXnwQiEjkCiCOkm43nnnUcTExOhg8QZMAJRIZAYQu7bt69IRwUZeUFAVK8J5xMVAokhJAgojDhMxqheD84nagQSQ8iOjg6HkFNTU1HjxPkxApEgkBhC/vLLL44FNxJkOBNGoAIIJIaQFcCGs2QEIkeACRk55JwhI6BHgAmpx4b/YQQiR4AJGTnknCEjoEeACanHhv9hBCJHgAkZOeScISOgR8A6IX/++Wd65ZVX6MYbbyR5Mv+ss86izs5O2rNnD/3666/6EhHRl19+SQ888ABdeOGFztwjnr/mmmvorbfeor/++sv3ef6TEUgqAtYICZI999xzdM455zgkEitr3McVK1bQ6Ogo/f3330W4IY1HH32UzjjjDN801q1bR7Ozs0XP8gUjUA0IWCHkZ599RpdccomHRPDEQC+pIhj+e+SRR+j3338v4PjDDz/Q7bff7kmjsbGRGhoaPPdBSjzDgRGoJgTKJuSHH35III3oBTG03LJlC3311VdOD4ie8JNPPvGQFqRErzo/P0/33XdfURq7du1yyArAMYzt7e0lPCPyeuqpp6pJFlwXRoDKIuShQ4eKyIhea2ZmRgtrLpej888/3yEUiIUdyG+99VaHaCA30pWDGA6D7IKMOGL/nnw+L0flc0Yg0QiUTEh458vDVAw3FxtCoqe88847i0glEwxD01dffbUIUKQJosvxxDnIPDk5WRSfLxiBJCNQEiH/+OMPkje1CqLPDQ0NKckFkt17772EtOWAYakgoPvIhJSR4vNqQKAkQo6NjTmGFgwxDx8+bIzFM888oyTY2WefTdBH5YDhqPwdDzchm5ub6YsvvpAf4XNGINEIBCbkTz/9RNddd51DKvR4QQI2o3ITC9dIE2nL4dtvv6VVq1Yp4+MZzHUuNqcpp8fnjEDcEQhMSGylUV9fXyAJdMjvvvvOuI5uMsvEfPzxxz3pIO3W1lYlIaFvvvHGG55nTG9AN8XGyi0tLVZ/l112WcHK/NFHHxVZiU3LxfHMEIBqA8u8bfldfPHFhXTxnv/2229mhbEYKxAhAcIdd9zhECTotAOGlxhmykTEOQj+7rvveqoFIxCmReSpDsTHNfIWc5ieBw1uwJJrsojBXdYg11gAsWPHDu7FDeQRNAqMiitXrvS8S0Hks1hcWPWxUOXHH38MWryS4wcipKzTnXnmmXTw4MFAGb/99tsecgEUP10Qy+T27t1L6HnQGmKYun//fmeOM1ABpMgQKOZL0cril8lk6KKLLlIKGPfxv4irOmJZoHtaRggcIwksnuBgDwGMcNAoy7LANi/uxhsyuOCCCwrffpHjus9hmFy+fLlS/piqe++99+wV3ielQIRED7l9+/YCCE8//bRH5/PJp/AXhqXiJZWP69evr8jwwF1eNDBoaOSy+TUW7ufReGCj6CuvvLIoDaSHr3UdO3bM/QhfW0RANQIL0nFgRHbkyBG65ZZbPMRWzY9bLLqTVCBCOk+VcILxOIgnv+ziHJbXOARsuCzKJI4qY9NiZcVQGi2wSEMc8XFZt+FqsbT4f3MEoPYI+4bAfPXq1fTNN9+YJ0JUGH2pVCWMdDCyCjNERkjdmF+nP4ZZaV3amAcVghRHlbFJ97x8X9VaYzj10ksvydH43CIC27Zt88jvtttu88xtm2R58uRJuuKKKzzpBbWbmOQlx4mMkKrWCy89FPOwWx25wrpzlQBAoFItuXNzcwV3MUFscYRRzL34QVcmvm+OADAF+QTO4hh0Wk7kqFtVBlvBYivSRBqlHCMjZNz1RxhdZP9NCDSI/ugGXzfFU8oQ2J02X3sRkA2OgoxB9EdvilQwBIm0xBHz4pgfDytEQsgk6I+vvfaap3Uthzy6OdRy0gzrJaiGdFXTWKXojwIL7AOsWkNdFYRU6VNoceKkPz744IMeQpaqP0Kon376KZ177rmeNKuZkJAzcMSuEBjyRRlUBrlS9UeUW9egVgUhdfOPcdEfVfpeOfojBKrqcdEIlfOSRPmCl5KXsBNE7Ran0/dK1R9Rd1WPC/nB0AN7Q1ghkiFrremPEJaqx612K6sYCUXthROG/qjqcUHIxFtZdcYNVC4u84+wpIIsKJP4lTO0xHBH9hUVaba1tdGJEyfCalwrnq5sKyindwpaEfjEohEQOONYjv4IhwWsCJPTwzlW7MDJPswQeg+psl6icqXoj5geufbaawsLzgcHB61NH6h6s3L0R8w1ugmO6xdffDFMWcYibdGzhD09IFdW5CkTqBzVAG6AcAeU08M5Phgctm4cmJBiOw2xj47YQwfbP6oCFHx3xXBdypSCDDx2HrABjqoHB3lKnX9UpYf6YuVOOYvhVdjG8R72PoJtAA0u9OiwA96Be+65x/OOldpDYz5TtUAkiBN+OXUOREi/7TQefvhhD0F0YOEFRQVhWjYN7mEEiG4jqHrwUhoLlAX1VS25ikqYNvCwkQbIABljNBPmJDrKalt/xBYy7l0Oo1yHbExIvGzosgG06odNjGGtlIMKLPEsholBwoEDB5xhBFpgtMQ2gi39EQ3Gk08+6Rmqmuw1ZKMecUoDejL0ZYw00EDh3Qkr2NIf4RiAnQ7dZIRVNcqVZMaExAJdKMqCUO4jHIlhzJCDMIO74+Iaw0/TgJcdzsQiHVVvbJqWO165+iOGoa+//rrHiIO9aAcGBmpimOrGFNeip4Gx5eOPP1ZFsXJPVmPE+xFEfxQeOldddVVRY4rGBENhnSpmpfCKRIwJqXJNEgDg6HahQqvY19fnkEiOi/NsNqsojvoWjCEACM+l02k6evSoOmLAuzp976abbiq0lvgkgvx7+eWXqb+/3/HBW7t2radFRRnhfgU3nloO0MXERmjwY8W+vLYD3jGV/nj55ZfTyMhIkeyEHDGKEb6QUCVUPqzwf4X/Y5g9uw4LY0KCQG5SiWuVAg/SgDwijvtoSkhM0AoDEkhp01Kp0h/d5TS9xlAH+wWBiL6CnD9K2aEMdbWlaWn9wvC/bkma0mt7aOvuScrP60SVvPvQH7u7uwvvQBik9FOJTOUm4mFEg7LCnxW9pnmYp9yOLmqq76QRC+6uxoTU9ZCqoZnOH1BUHkeTaYWJiYmijZVtWypV+iOIBR3Vb68WmPRFKwsdCXNTJhbU/L5+am/4RwdvaKJ0SxM1uHXyhnbq31c9mz/LpMTwFZj7NljmTCjsyeuef8T7iI7AT37YfULsAIEeE41+8P1z5il/6F+UaROfuWin4ekAhddENSakMGcLUqHisKK5h2ZoXZ599llniIneDbsMuIGDzonPDagCBAbByc+EYalU6Y9B9A9V2XX35t7MUFMqRXVrMjQ6LXeD85R/f5i6GmVjWRN1PR/uBLSunGHchx4mNsjGKAefhPDb4d60DCr9MaylbXPTYzS6e5j6NmVow/Xt1CQaVqdBjZiQIAmMKYKQABZbHWARNXoHEHFqaqpo+wP0NlDu8axqOgCtGHb3Er0LdDoQETqY0BmRH4YSts3nqvWryAtOrtbD8RHqwvC0bSvlZC7KGZ3MUqaIlK3U/x85gv58enq6sFRP9NpxPKJHklUY4yG+ptp4pwTJxTuJI+YQwwhHh9qddx/5NDR20oZe+V7EhEQlQQr0VDIAunMoy7t373aGJyAdvnYlE033rLiPXhi7fsHKajuo9Mdy/ed0ZRzbvLSAWedDWcr5jEbn9vRQndPipih19Qjpv5RyKjcQUGCWtCNkjEY5aNDpj7bmp93lKfSQew9SbjZP+f/98++bGQn3ChASxfj+++8Ln43zIxasVBiXuwNaNXwXEtsj+r04SBv7z7iHw+70yrlWeWOE46UwSf3N0nC03kdwf45R33IpbsonrlT5pPaQ+Civ/JU0qUqLnqq8MeBgjoY2shAHQqKyIBZeAgxD0WNi6AmdEEMIky8co7d85513aOPGjYXnhAKOtKAXfP3116FjGp3+mKWM3OulUrT0Id32mXM02isTMkVdz/t0qaGjZCeDMHTIKPVHLQpxIaS2gAn5Q7V/DnpsCNl+GKPMP9MbYlSQfkz/xa7sxmJCtg/ZmXO1Xy+zFMOwsur2zwm6+susBj6xmJA+4AT4K0r9EcXKbes8Nb3RmKGsj39rNRFStjlgBGVrOBm1/qh9tZiQWmgC/aHyQAlHfzxVrPmTecrP5mn+z1P3vGczNNwh95B1lAlu7/AmW4E7UEuEsQkqic2VOqo58cj1R2DKhLTzZqnca2y5c5VVwtkR6pL1zfoeGi1er19W8lE+HOZaVtX+qyrnhtDry4QsH+Jo9cdg5Z3Z0VlkfU6q/gjvCOyYAGu5bW+P2OiPEC0TMtgLroqtctfBV7BU0zSq50O7N5eljDTlUdcxTDnf4W1oJSk7Yew7AwNWGP6QOq+jKJyhPcAwIT2QBL6hMpeHrT+aFPLgQ02nesdFDD8m6VUqjlhiqXI4sFEmlUtfRfRHVIYJWZ5IYWjAOkox/SCOYa1fNS2tWOdaKE9jD41a8Bowzdt2PNHghbGnDua/4f4m5CaOYa1fXRQbJuSiEDkR8Ok3+MDBC3zz5s0Fi5/u+4FYOQTXKVgFofPguTCdap1C4uTIMLULN6zmDGUTvA7A5q5zmNqA4zcs4phfhGywEyCW2gkiiiOWaWJnBsSB9wbkNz4+bm0TtCJ5yRdMSBkN/TlaUpXjqhCgyRGrhoLs+aMvjc8/0oLyhqu30qTP/KRPKrH5y+a+rGJfHhNZqeKodrCwDhQT0gxSEEk4xsrCgtUPX9MVS/VwrlqTi3vYfiPU8GeOhjvqCq19U+8ozSTUgCNjJHaot6GTizlMWX44h74o5AfvEVWPiXh33XUX95CycPjcBwGQ8Wo4ttZRelOW1FONMzS5d5TGptX/+qResb8q+W2PilSae8iKwG450znKboRFtY7aH5vUkBG65VZqTaWoZ09yCGkZqPgnx4SMv4z8SzhPucF2qgMZB3Ok81UupPHvDZRKpY2dlP3z5X9DQYAJGQqskSWaGwIZzbbnWHBq7qKR2ciKxxkFRYAJGRSx+MR35hqbuyizKeP723B968KOdMv7SOc5GZ+a1XBJmJAJFb401+i2GvpedwwbbeGRUFQSX+z8ri5pTrSVtv63/CoZ7zpXfla1moLXQdmXhJK3R92msVoFLX71PjZCPS1pSotfo9j+UXaXw+ZXUpyWPgoqQSZk6KL3buFhSsikenuEDmklMpgepnansayjpc0y8aTzJQtzywsyzpD5/vwLlWJCVkK4nCcjoEGACakBhm8zApVAgAlZCdQ5T0ZAgwATUgMM32YEKoEAE7ISqHOejIAGASakBhi+zQhUAgEmZCVQ5zwZAQ0CTEgNMHybEagEAv8Hre3ScOXzAQwAAAAASUVORK5CYII=;" vertex="1" parent="1">
          <mxGeometry x="470" y="298.56" width="58.4" height="25.61" as="geometry" />
        </mxCell>
        <mxCell id="KhGMIewLTXNn31ryJmVY-30" value="" style="endArrow=classic;html=1;rounded=0;exitX=0.519;exitY=0.596;exitDx=0;exitDy=0;entryX=0.617;entryY=0.973;entryDx=0;entryDy=0;entryPerimeter=0;strokeColor=#00CC66;exitPerimeter=0;strokeWidth=2;sourcePerimeterSpacing=0;" edge="1" parent="1" source="KhGMIewLTXNn31ryJmVY-18" target="KhGMIewLTXNn31ryJmVY-16">
          <mxGeometry width="50" height="50" relative="1" as="geometry">
            <mxPoint x="592.94" y="371.25" as="sourcePoint" />
            <mxPoint x="550.94" y="277.25" as="targetPoint" />
          </mxGeometry>
        </mxCell>
      </root>
    </mxGraphModel>
  </diagram>
</mxfile>
